# xmcd
#
# Track frame offsets:
#	150
#	18763
#	37951
#	57993
#	78903
#	94628
#	113441
#	134621
#	150658
#	170121
#	189708
#	227650
#
# Disc length: 4440 seconds
#
# Revision: 1
# Processed by: cddbd v1.5.1PL0 Copyright (c) Steve Scherf et al.
# Submitted via: audiograbber 1.83.01
#
DISCID=8e11560c
DTITLE=Kathy Mattea - Right Out Of Nowhere
DYEAR=2005
DGENRE=County
TTITLE0=Kathy Mattea - Right Outta Nowhere
TTITLE1=Kathy Mattea - Gimme Shelter
TTITLE2=Kathy Mattea -  Hurt Some
TTITLE3=Kathy Mattea - Love's Not Through With Me Yet
TTITLE4=Kathy Mattea - Loving You, Letting You Go
TTITLE5=Kathy Mattea - Live It
TTITLE6=Kathy Mattea - I Hope You're Happy Now
TTITLE7=Kathy Mattea - Down On The Corner
TTITLE8=Kathy Mattea - Only Heaven Knows
TTITLE9=Kathy Mattea - Give It Away
TTITLE10=Kathy Mattea - Wade In The Water
TTITLE11=Daten-CD
EXTD=Visit the wonderful Kathy Mattea - www.mattea.com
EXTT0=
EXTT1=
EXTT2=
EXTT3=
EXTT4=
EXTT5=
EXTT6=
EXTT7=
EXTT8=
EXTT9=
EXTT10=
EXTT11=
PLAYORDER=
